<svg width="1000" height="1000" viewBox="0 0 1000 1000" fill="none" xmlns="http://www.w3.org/2000/svg">
<rect width="1000" height="1000" rx="200" fill="black"/>
<path d="M391.702 468.585C407.02 451.983 422.218 433.938 437.493 417.06C475.505 375.267 514.185 334.088 553.521 293.54C613 233.104 673.758 171.341 742.303 121.083C757.009 110.985 779.006 93.4419 797.173 93.0064C820.042 92.4587 821.007 127.372 819.571 142.992C813.345 210.734 768.76 294.109 717.848 337.618C715.589 332.114 716.159 295.856 716.102 286.965C720.019 287.473 758.088 287.937 759.97 287.182C757.63 285.293 753.792 285.942 750.804 286.19C741.718 286.051 732.631 286.047 723.545 286.181C720.796 285.647 718.049 286.314 715.289 285.166L714.41 286.032C698.66 285.878 682.91 285.897 667.161 286.087C660.478 285.501 655.224 285.374 648.573 286.153C650.086 287.235 684.638 265.907 686.633 265.591C699.646 265.797 730.541 266.985 742.453 265.557C745.071 277.85 712.031 328.371 716.684 339.021C699.662 353.235 681.762 369.487 665.096 384.277C612.617 431.178 561.257 479.317 511.061 528.653C483.316 555.848 455.98 583.458 429.067 611.475C400.449 641.173 371.742 672.49 346.629 705.278C341.087 712.512 336.94 720.494 331.848 727.919C383.053 720 441.456 702.356 473.949 658.245C485.241 642.915 486.924 626.046 484.369 607.551C504.168 591.277 524.328 575.662 544.111 559.359C553.507 551.612 562.966 543.939 572.485 536.343C576.837 532.855 585.171 525.916 589.647 523.331C627.503 630.296 610.539 732.246 506.878 794.654L493.379 803.434C449.441 830.882 404.37 858.353 358.254 882.062C344.486 889.141 325.711 898.283 311.082 902.958C301.34 906.174 291.147 907.806 280.888 907.79C203.803 908.026 193.623 827.852 187.604 768.788C183.178 725.099 180.973 681.214 181 637.302C192.075 660.242 197.881 677.363 221.147 692.426C210.958 625.022 208.688 579.848 218.333 513.068C219.706 505.43 221.221 497.817 222.877 490.236C226.158 471.847 231.844 453.153 237.112 435.259C255.118 374.083 280.563 323.775 312.973 269.457C335.427 231.124 360.648 194.482 388.435 159.818C404.046 140.196 420.661 118.861 440.332 103.426C446.761 98.3813 464.262 91.3133 467.901 101.628C477.546 128.978 465.499 165.534 458.8 193C445.898 236.059 429.111 283.115 407.657 322.255C395.449 344.528 378.733 367.712 365.727 389.59C345.647 423.89 325.907 458.386 306.505 493.074C304.354 497.005 301.797 501.978 299.47 505.695L290.155 522.741L340.527 522.842C338.141 527.03 335.404 531.774 332.721 535.752C307.205 573.593 294.904 612.683 279.946 655.098C294.07 639.637 308.577 620.174 322.871 604.031C364.179 557.381 409.226 507.97 457.565 468.919C437.021 469.753 412.413 468.893 391.702 468.585Z" fill="#1EC57A"/>
<path d="M499.388 672.937C504.081 673.218 507.63 673.236 508.347 678.576C507.504 681.403 506.909 681.739 504.821 683.988C502.002 684.513 499.93 684.245 497.445 682.988C494.129 678.611 496.272 676.556 499.388 672.937Z" fill="#1EC57A"/>
<path d="M306.111 286.52C319.642 285.286 336.901 286.086 350.694 285.921C353.8 285.884 354.58 285.868 356.219 287.651C347.397 287.118 310.712 288.251 306.111 286.52Z" fill="#1EC57A"/>
<path d="M714.41 286.031L715.289 285.166C718.049 286.314 720.796 285.647 723.545 286.181C728.284 287.282 746.485 287.469 750.804 286.19C753.792 285.942 757.631 285.292 759.97 287.182C758.089 287.937 720.019 287.473 716.102 286.964C716.159 295.856 715.589 332.114 717.848 337.618L716.684 339.021C712.031 328.371 716.956 299.029 714.338 286.736L714.41 286.031Z" fill="#1EC57A"/>
<path d="M723.545 286.181C732.631 286.047 741.718 286.051 750.804 286.19C746.485 287.469 728.284 287.283 723.545 286.181Z" fill="#1EC57A"/>
</svg>
